<mxfile host="app.diagrams.net" modified="2021-04-10T12:45:13.827Z" agent="5.0 (Macintosh; Intel Mac OS X 11_2_1) AppleWebKit/537.36 (KHTML, like Gecko) Chrome/88.0.4324.182 Safari/537.36 Edg/88.0.705.74" etag="OLjfMwXRa2R1YZR_enRj" version="14.5.8" type="github">
  <diagram id="MXcY_-OrrRGdvUZjyQHK" name="第 1 页">
    <mxGraphModel dx="1694" dy="1091" grid="0" gridSize="10" guides="1" tooltips="1" connect="1" arrows="1" fold="1" page="1" pageScale="1" pageWidth="9900" pageHeight="9900" math="0" shadow="0">
      <root>
        <mxCell id="0" />
        <mxCell id="1" parent="0" />
        <mxCell id="sS-mawD9lKDqWWEO7rcs-38" value="main(start)" style="edgeStyle=orthogonalEdgeStyle;rounded=0;orthogonalLoop=1;jettySize=auto;html=1;fontSize=16;" edge="1" parent="1" source="sS-mawD9lKDqWWEO7rcs-8">
          <mxGeometry relative="1" as="geometry">
            <mxPoint x="460" y="579.9999999999998" as="targetPoint" />
          </mxGeometry>
        </mxCell>
        <mxCell id="sS-mawD9lKDqWWEO7rcs-8" value="" style="shape=umlActor;verticalLabelPosition=bottom;verticalAlign=top;html=1;outlineConnect=0;" vertex="1" parent="1">
          <mxGeometry x="300" y="530" width="50" height="100" as="geometry" />
        </mxCell>
        <mxCell id="sS-mawD9lKDqWWEO7rcs-9" value="Bootstrap" style="rounded=0;whiteSpace=wrap;html=1;fontSize=16;" vertex="1" parent="1">
          <mxGeometry x="440" y="480" width="80" height="40" as="geometry" />
        </mxCell>
        <mxCell id="sS-mawD9lKDqWWEO7rcs-10" value="" style="endArrow=none;dashed=1;html=1;fontSize=16;entryX=0.5;entryY=1;entryDx=0;entryDy=0;" edge="1" parent="1" target="sS-mawD9lKDqWWEO7rcs-9">
          <mxGeometry width="50" height="50" relative="1" as="geometry">
            <mxPoint x="480" y="1200" as="sourcePoint" />
            <mxPoint x="480" y="530" as="targetPoint" />
          </mxGeometry>
        </mxCell>
        <mxCell id="sS-mawD9lKDqWWEO7rcs-13" value="Catalina" style="rounded=0;whiteSpace=wrap;html=1;fontSize=16;" vertex="1" parent="1">
          <mxGeometry x="560" y="480" width="120" height="40" as="geometry" />
        </mxCell>
        <mxCell id="sS-mawD9lKDqWWEO7rcs-14" value="" style="endArrow=none;dashed=1;html=1;fontSize=16;entryX=0.5;entryY=1;entryDx=0;entryDy=0;" edge="1" parent="1" target="sS-mawD9lKDqWWEO7rcs-13" source="sS-mawD9lKDqWWEO7rcs-47">
          <mxGeometry width="50" height="50" relative="1" as="geometry">
            <mxPoint x="620" y="1200" as="sourcePoint" />
            <mxPoint x="600" y="530" as="targetPoint" />
          </mxGeometry>
        </mxCell>
        <mxCell id="sS-mawD9lKDqWWEO7rcs-15" value="Connector" style="rounded=0;whiteSpace=wrap;html=1;fontSize=16;" vertex="1" parent="1">
          <mxGeometry x="1680" y="480" width="120" height="40" as="geometry" />
        </mxCell>
        <mxCell id="sS-mawD9lKDqWWEO7rcs-16" value="" style="endArrow=none;dashed=1;html=1;fontSize=16;entryX=0.5;entryY=1;entryDx=0;entryDy=0;" edge="1" parent="1" target="sS-mawD9lKDqWWEO7rcs-15" source="sS-mawD9lKDqWWEO7rcs-78">
          <mxGeometry width="50" height="50" relative="1" as="geometry">
            <mxPoint x="1740" y="1190" as="sourcePoint" />
            <mxPoint x="1760" y="530" as="targetPoint" />
          </mxGeometry>
        </mxCell>
        <mxCell id="sS-mawD9lKDqWWEO7rcs-19" value="Server" style="rounded=0;whiteSpace=wrap;html=1;fontSize=16;" vertex="1" parent="1">
          <mxGeometry x="720" y="480" width="120" height="40" as="geometry" />
        </mxCell>
        <mxCell id="sS-mawD9lKDqWWEO7rcs-20" value="" style="endArrow=none;dashed=1;html=1;fontSize=16;entryX=0.5;entryY=1;entryDx=0;entryDy=0;" edge="1" parent="1" target="sS-mawD9lKDqWWEO7rcs-19" source="sS-mawD9lKDqWWEO7rcs-52">
          <mxGeometry width="50" height="50" relative="1" as="geometry">
            <mxPoint x="780" y="1200" as="sourcePoint" />
            <mxPoint x="800" y="530" as="targetPoint" />
          </mxGeometry>
        </mxCell>
        <mxCell id="sS-mawD9lKDqWWEO7rcs-21" value="Service" style="rounded=0;whiteSpace=wrap;html=1;fontSize=16;" vertex="1" parent="1">
          <mxGeometry x="880" y="480" width="120" height="40" as="geometry" />
        </mxCell>
        <mxCell id="sS-mawD9lKDqWWEO7rcs-22" value="" style="endArrow=none;dashed=1;html=1;fontSize=16;entryX=0.5;entryY=1;entryDx=0;entryDy=0;" edge="1" parent="1" target="sS-mawD9lKDqWWEO7rcs-21" source="sS-mawD9lKDqWWEO7rcs-58">
          <mxGeometry width="50" height="50" relative="1" as="geometry">
            <mxPoint x="940" y="1210" as="sourcePoint" />
            <mxPoint x="960" y="530" as="targetPoint" />
          </mxGeometry>
        </mxCell>
        <mxCell id="sS-mawD9lKDqWWEO7rcs-23" value="Executor" style="rounded=0;whiteSpace=wrap;html=1;fontSize=16;" vertex="1" parent="1">
          <mxGeometry x="1040" y="480" width="120" height="40" as="geometry" />
        </mxCell>
        <mxCell id="sS-mawD9lKDqWWEO7rcs-24" value="" style="endArrow=none;dashed=1;html=1;fontSize=16;entryX=0.5;entryY=1;entryDx=0;entryDy=0;" edge="1" parent="1" target="sS-mawD9lKDqWWEO7rcs-23" source="sS-mawD9lKDqWWEO7rcs-62">
          <mxGeometry width="50" height="50" relative="1" as="geometry">
            <mxPoint x="1100" y="1200" as="sourcePoint" />
            <mxPoint x="1120" y="530" as="targetPoint" />
          </mxGeometry>
        </mxCell>
        <mxCell id="sS-mawD9lKDqWWEO7rcs-25" value="Engine" style="rounded=0;whiteSpace=wrap;html=1;fontSize=16;" vertex="1" parent="1">
          <mxGeometry x="1200" y="480" width="120" height="40" as="geometry" />
        </mxCell>
        <mxCell id="sS-mawD9lKDqWWEO7rcs-26" value="" style="endArrow=none;dashed=1;html=1;fontSize=16;entryX=0.5;entryY=1;entryDx=0;entryDy=0;" edge="1" parent="1" target="sS-mawD9lKDqWWEO7rcs-25" source="sS-mawD9lKDqWWEO7rcs-64">
          <mxGeometry width="50" height="50" relative="1" as="geometry">
            <mxPoint x="1260" y="1200" as="sourcePoint" />
            <mxPoint x="1280" y="530" as="targetPoint" />
          </mxGeometry>
        </mxCell>
        <mxCell id="sS-mawD9lKDqWWEO7rcs-27" value="Context" style="rounded=0;whiteSpace=wrap;html=1;fontSize=16;" vertex="1" parent="1">
          <mxGeometry x="1520" y="480" width="120" height="40" as="geometry" />
        </mxCell>
        <mxCell id="sS-mawD9lKDqWWEO7rcs-28" value="" style="endArrow=none;dashed=1;html=1;fontSize=16;entryX=0.5;entryY=1;entryDx=0;entryDy=0;" edge="1" parent="1" target="sS-mawD9lKDqWWEO7rcs-27" source="sS-mawD9lKDqWWEO7rcs-70">
          <mxGeometry width="50" height="50" relative="1" as="geometry">
            <mxPoint x="1580" y="1200" as="sourcePoint" />
            <mxPoint x="1600" y="530" as="targetPoint" />
          </mxGeometry>
        </mxCell>
        <mxCell id="sS-mawD9lKDqWWEO7rcs-29" value="Host" style="rounded=0;whiteSpace=wrap;html=1;fontSize=16;" vertex="1" parent="1">
          <mxGeometry x="1360" y="480" width="120" height="40" as="geometry" />
        </mxCell>
        <mxCell id="sS-mawD9lKDqWWEO7rcs-30" value="" style="endArrow=none;dashed=1;html=1;fontSize=16;entryX=0.5;entryY=1;entryDx=0;entryDy=0;" edge="1" target="sS-mawD9lKDqWWEO7rcs-29" parent="1">
          <mxGeometry width="50" height="50" relative="1" as="geometry">
            <mxPoint x="1420" y="1200" as="sourcePoint" />
            <mxPoint x="1440" y="530" as="targetPoint" />
          </mxGeometry>
        </mxCell>
        <mxCell id="sS-mawD9lKDqWWEO7rcs-33" value="ProtocolHander" style="rounded=0;whiteSpace=wrap;html=1;fontSize=16;" vertex="1" parent="1">
          <mxGeometry x="1840" y="480" width="120" height="40" as="geometry" />
        </mxCell>
        <mxCell id="sS-mawD9lKDqWWEO7rcs-34" value="" style="endArrow=none;dashed=1;html=1;fontSize=16;entryX=0.5;entryY=1;entryDx=0;entryDy=0;" edge="1" parent="1" target="sS-mawD9lKDqWWEO7rcs-33" source="sS-mawD9lKDqWWEO7rcs-80">
          <mxGeometry width="50" height="50" relative="1" as="geometry">
            <mxPoint x="1900" y="1190" as="sourcePoint" />
            <mxPoint x="1920" y="530" as="targetPoint" />
          </mxGeometry>
        </mxCell>
        <mxCell id="sS-mawD9lKDqWWEO7rcs-35" value="User" style="text;html=1;strokeColor=none;fillColor=none;align=center;verticalAlign=middle;whiteSpace=wrap;rounded=0;fontSize=16;" vertex="1" parent="1">
          <mxGeometry x="310" y="640" width="40" height="20" as="geometry" />
        </mxCell>
        <mxCell id="sS-mawD9lKDqWWEO7rcs-37" value="" style="rounded=0;whiteSpace=wrap;html=1;fontSize=16;" vertex="1" parent="1">
          <mxGeometry x="465" y="550" width="35" height="563" as="geometry" />
        </mxCell>
        <mxCell id="sS-mawD9lKDqWWEO7rcs-39" value="" style="endArrow=classic;html=1;fontSize=16;" edge="1" parent="1">
          <mxGeometry width="50" height="50" relative="1" as="geometry">
            <mxPoint x="500" y="580" as="sourcePoint" />
            <mxPoint x="503" y="620" as="targetPoint" />
            <Array as="points">
              <mxPoint x="530" y="580" />
              <mxPoint x="530" y="620" />
            </Array>
          </mxGeometry>
        </mxCell>
        <mxCell id="sS-mawD9lKDqWWEO7rcs-42" value="init" style="edgeLabel;html=1;align=center;verticalAlign=middle;resizable=0;points=[];fontSize=16;" vertex="1" connectable="0" parent="sS-mawD9lKDqWWEO7rcs-39">
          <mxGeometry x="-0.053" y="1" relative="1" as="geometry">
            <mxPoint as="offset" />
          </mxGeometry>
        </mxCell>
        <mxCell id="sS-mawD9lKDqWWEO7rcs-43" value="load" style="endArrow=classic;html=1;fontSize=16;entryX=1.076;entryY=0.192;entryDx=0;entryDy=0;entryPerimeter=0;" edge="1" parent="1">
          <mxGeometry width="50" height="50" relative="1" as="geometry">
            <mxPoint x="497.72" y="639.9999999999998" as="sourcePoint" />
            <mxPoint x="495.0000000000002" y="681.04" as="targetPoint" />
            <Array as="points">
              <mxPoint x="527.72" y="640" />
              <mxPoint x="527.72" y="680" />
            </Array>
          </mxGeometry>
        </mxCell>
        <mxCell id="sS-mawD9lKDqWWEO7rcs-49" style="edgeStyle=orthogonalEdgeStyle;rounded=0;orthogonalLoop=1;jettySize=auto;html=1;fontSize=16;" edge="1" parent="1" source="sS-mawD9lKDqWWEO7rcs-46">
          <mxGeometry relative="1" as="geometry">
            <mxPoint x="600" y="704.9999999999998" as="targetPoint" />
          </mxGeometry>
        </mxCell>
        <mxCell id="sS-mawD9lKDqWWEO7rcs-46" value="" style="rounded=0;whiteSpace=wrap;html=1;fontSize=16;" vertex="1" parent="1">
          <mxGeometry x="470" y="670" width="30" height="70" as="geometry" />
        </mxCell>
        <mxCell id="sS-mawD9lKDqWWEO7rcs-47" value="" style="rounded=0;whiteSpace=wrap;html=1;fontSize=16;" vertex="1" parent="1">
          <mxGeometry x="605" y="670" width="30" height="70" as="geometry" />
        </mxCell>
        <mxCell id="sS-mawD9lKDqWWEO7rcs-48" value="" style="endArrow=none;dashed=1;html=1;fontSize=16;entryX=0.5;entryY=1;entryDx=0;entryDy=0;" edge="1" parent="1" source="sS-mawD9lKDqWWEO7rcs-90" target="sS-mawD9lKDqWWEO7rcs-47">
          <mxGeometry width="50" height="50" relative="1" as="geometry">
            <mxPoint x="620" y="1200" as="sourcePoint" />
            <mxPoint x="620" y="519.9999999999998" as="targetPoint" />
          </mxGeometry>
        </mxCell>
        <mxCell id="sS-mawD9lKDqWWEO7rcs-51" value="创建Server" style="endArrow=classic;html=1;fontSize=16;entryX=1.076;entryY=0.192;entryDx=0;entryDy=0;entryPerimeter=0;" edge="1" parent="1">
          <mxGeometry width="50" height="50" relative="1" as="geometry">
            <mxPoint x="637.72" y="678.9599999999998" as="sourcePoint" />
            <mxPoint x="635.0000000000002" y="720" as="targetPoint" />
            <Array as="points">
              <mxPoint x="667.72" y="678.96" />
              <mxPoint x="667.72" y="718.96" />
            </Array>
          </mxGeometry>
        </mxCell>
        <mxCell id="sS-mawD9lKDqWWEO7rcs-52" value="" style="rounded=0;whiteSpace=wrap;html=1;fontSize=16;" vertex="1" parent="1">
          <mxGeometry x="765" y="720" width="25" height="50" as="geometry" />
        </mxCell>
        <mxCell id="sS-mawD9lKDqWWEO7rcs-53" value="" style="endArrow=none;dashed=1;html=1;fontSize=16;entryX=0.5;entryY=1;entryDx=0;entryDy=0;" edge="1" parent="1" target="sS-mawD9lKDqWWEO7rcs-52">
          <mxGeometry width="50" height="50" relative="1" as="geometry">
            <mxPoint x="780" y="1200" as="sourcePoint" />
            <mxPoint x="780" y="519.9999999999998" as="targetPoint" />
          </mxGeometry>
        </mxCell>
        <mxCell id="sS-mawD9lKDqWWEO7rcs-57" value="init" style="edgeStyle=orthogonalEdgeStyle;rounded=0;orthogonalLoop=1;jettySize=auto;html=1;fontSize=16;" edge="1" parent="1">
          <mxGeometry relative="1" as="geometry">
            <mxPoint x="765" y="734.41" as="targetPoint" />
            <mxPoint x="645" y="734.41" as="sourcePoint" />
          </mxGeometry>
        </mxCell>
        <mxCell id="sS-mawD9lKDqWWEO7rcs-58" value="" style="rounded=0;whiteSpace=wrap;html=1;fontSize=16;" vertex="1" parent="1">
          <mxGeometry x="925" y="750" width="25" height="90" as="geometry" />
        </mxCell>
        <mxCell id="sS-mawD9lKDqWWEO7rcs-59" value="" style="endArrow=none;dashed=1;html=1;fontSize=16;entryX=0.5;entryY=1;entryDx=0;entryDy=0;" edge="1" parent="1" target="sS-mawD9lKDqWWEO7rcs-58">
          <mxGeometry width="50" height="50" relative="1" as="geometry">
            <mxPoint x="940" y="1210" as="sourcePoint" />
            <mxPoint x="940" y="519.9999999999998" as="targetPoint" />
          </mxGeometry>
        </mxCell>
        <mxCell id="sS-mawD9lKDqWWEO7rcs-61" value="init" style="edgeStyle=orthogonalEdgeStyle;rounded=0;orthogonalLoop=1;jettySize=auto;html=1;fontSize=16;" edge="1" parent="1">
          <mxGeometry relative="1" as="geometry">
            <mxPoint x="915" y="759.9999999999999" as="targetPoint" />
            <mxPoint x="795" y="759.9999999999999" as="sourcePoint" />
          </mxGeometry>
        </mxCell>
        <mxCell id="sS-mawD9lKDqWWEO7rcs-62" value="" style="rounded=0;whiteSpace=wrap;html=1;fontSize=16;" vertex="1" parent="1">
          <mxGeometry x="1088.75" y="780" width="22.5" height="40" as="geometry" />
        </mxCell>
        <mxCell id="sS-mawD9lKDqWWEO7rcs-63" value="" style="endArrow=none;dashed=1;html=1;fontSize=16;entryX=0.5;entryY=1;entryDx=0;entryDy=0;" edge="1" parent="1" target="sS-mawD9lKDqWWEO7rcs-62">
          <mxGeometry width="50" height="50" relative="1" as="geometry">
            <mxPoint x="1100" y="1200" as="sourcePoint" />
            <mxPoint x="1100" y="519.9999999999998" as="targetPoint" />
          </mxGeometry>
        </mxCell>
        <mxCell id="sS-mawD9lKDqWWEO7rcs-64" value="" style="rounded=0;whiteSpace=wrap;html=1;fontSize=16;" vertex="1" parent="1">
          <mxGeometry x="1248.75" y="750" width="22.5" height="40" as="geometry" />
        </mxCell>
        <mxCell id="sS-mawD9lKDqWWEO7rcs-65" value="" style="endArrow=none;dashed=1;html=1;fontSize=16;entryX=0.5;entryY=1;entryDx=0;entryDy=0;" edge="1" parent="1" target="sS-mawD9lKDqWWEO7rcs-64">
          <mxGeometry width="50" height="50" relative="1" as="geometry">
            <mxPoint x="1260" y="1200" as="sourcePoint" />
            <mxPoint x="1260" y="519.9999999999998" as="targetPoint" />
          </mxGeometry>
        </mxCell>
        <mxCell id="sS-mawD9lKDqWWEO7rcs-66" value="init" style="edgeStyle=orthogonalEdgeStyle;rounded=0;orthogonalLoop=1;jettySize=auto;html=1;fontSize=16;" edge="1" parent="1">
          <mxGeometry relative="1" as="geometry">
            <mxPoint x="1087.5" y="809.41" as="targetPoint" />
            <mxPoint x="967.5" y="809.41" as="sourcePoint" />
          </mxGeometry>
        </mxCell>
        <mxCell id="sS-mawD9lKDqWWEO7rcs-67" style="edgeStyle=orthogonalEdgeStyle;rounded=0;orthogonalLoop=1;jettySize=auto;html=1;fontSize=16;" edge="1" parent="1">
          <mxGeometry relative="1" as="geometry">
            <mxPoint x="1248.75" y="759.9999999999998" as="targetPoint" />
            <mxPoint x="960" y="760" as="sourcePoint" />
          </mxGeometry>
        </mxCell>
        <mxCell id="sS-mawD9lKDqWWEO7rcs-68" value="init" style="edgeLabel;html=1;align=center;verticalAlign=middle;resizable=0;points=[];fontSize=16;" vertex="1" connectable="0" parent="sS-mawD9lKDqWWEO7rcs-67">
          <mxGeometry x="-0.3269" y="-1" relative="1" as="geometry">
            <mxPoint as="offset" />
          </mxGeometry>
        </mxCell>
        <mxCell id="sS-mawD9lKDqWWEO7rcs-69" value="" style="rounded=0;whiteSpace=wrap;html=1;fontSize=16;" vertex="1" parent="1">
          <mxGeometry x="1408.75" y="760" width="22.5" height="40" as="geometry" />
        </mxCell>
        <mxCell id="sS-mawD9lKDqWWEO7rcs-70" value="" style="rounded=0;whiteSpace=wrap;html=1;fontSize=16;" vertex="1" parent="1">
          <mxGeometry x="1568.75" y="775" width="22.5" height="40" as="geometry" />
        </mxCell>
        <mxCell id="sS-mawD9lKDqWWEO7rcs-71" value="" style="endArrow=none;dashed=1;html=1;fontSize=16;entryX=0.5;entryY=1;entryDx=0;entryDy=0;" edge="1" parent="1" target="sS-mawD9lKDqWWEO7rcs-70">
          <mxGeometry width="50" height="50" relative="1" as="geometry">
            <mxPoint x="1580" y="1200.0000000000002" as="sourcePoint" />
            <mxPoint x="1580" y="520" as="targetPoint" />
          </mxGeometry>
        </mxCell>
        <mxCell id="sS-mawD9lKDqWWEO7rcs-73" value="init" style="edgeStyle=orthogonalEdgeStyle;rounded=0;orthogonalLoop=1;jettySize=auto;html=1;fontSize=16;" edge="1" parent="1">
          <mxGeometry relative="1" as="geometry">
            <mxPoint x="1400" y="769.6599999999999" as="targetPoint" />
            <mxPoint x="1280" y="769.6599999999999" as="sourcePoint" />
          </mxGeometry>
        </mxCell>
        <mxCell id="sS-mawD9lKDqWWEO7rcs-77" value="init" style="edgeStyle=orthogonalEdgeStyle;rounded=0;orthogonalLoop=1;jettySize=auto;html=1;fontSize=16;" edge="1" parent="1">
          <mxGeometry relative="1" as="geometry">
            <mxPoint x="1560" y="789.9999999999999" as="targetPoint" />
            <mxPoint x="1440" y="789.9999999999999" as="sourcePoint" />
          </mxGeometry>
        </mxCell>
        <mxCell id="sS-mawD9lKDqWWEO7rcs-78" value="" style="rounded=0;whiteSpace=wrap;html=1;fontSize=16;" vertex="1" parent="1">
          <mxGeometry x="1728.75" y="810" width="22.5" height="40" as="geometry" />
        </mxCell>
        <mxCell id="sS-mawD9lKDqWWEO7rcs-79" value="" style="endArrow=none;dashed=1;html=1;fontSize=16;entryX=0.5;entryY=1;entryDx=0;entryDy=0;" edge="1" parent="1" target="sS-mawD9lKDqWWEO7rcs-78">
          <mxGeometry width="50" height="50" relative="1" as="geometry">
            <mxPoint x="1740" y="1190.0000000000002" as="sourcePoint" />
            <mxPoint x="1740" y="520" as="targetPoint" />
          </mxGeometry>
        </mxCell>
        <mxCell id="sS-mawD9lKDqWWEO7rcs-84" value="start" style="edgeStyle=orthogonalEdgeStyle;rounded=0;orthogonalLoop=1;jettySize=auto;html=1;fontSize=16;" edge="1" parent="1">
          <mxGeometry relative="1" as="geometry">
            <mxPoint x="920" y="939.5" as="targetPoint" />
            <mxPoint x="800" y="939.5" as="sourcePoint" />
          </mxGeometry>
        </mxCell>
        <mxCell id="sS-mawD9lKDqWWEO7rcs-85" value="init" style="endArrow=classic;html=1;fontSize=16;" edge="1" parent="1">
          <mxGeometry width="50" height="50" relative="1" as="geometry">
            <mxPoint x="960" y="830" as="sourcePoint" />
            <mxPoint x="1720" y="830" as="targetPoint" />
          </mxGeometry>
        </mxCell>
        <mxCell id="sS-mawD9lKDqWWEO7rcs-80" value="" style="rounded=0;whiteSpace=wrap;html=1;fontSize=16;" vertex="1" parent="1">
          <mxGeometry x="1888.75" y="820" width="22.5" height="40" as="geometry" />
        </mxCell>
        <mxCell id="sS-mawD9lKDqWWEO7rcs-86" value="" style="endArrow=none;dashed=1;html=1;fontSize=16;entryX=0.5;entryY=1;entryDx=0;entryDy=0;" edge="1" parent="1" target="sS-mawD9lKDqWWEO7rcs-80">
          <mxGeometry width="50" height="50" relative="1" as="geometry">
            <mxPoint x="1900" y="1190" as="sourcePoint" />
            <mxPoint x="1900" y="520" as="targetPoint" />
          </mxGeometry>
        </mxCell>
        <mxCell id="sS-mawD9lKDqWWEO7rcs-87" value="init" style="edgeStyle=orthogonalEdgeStyle;rounded=0;orthogonalLoop=1;jettySize=auto;html=1;fontSize=16;" edge="1" parent="1">
          <mxGeometry relative="1" as="geometry">
            <mxPoint x="1880" y="840" as="targetPoint" />
            <mxPoint x="1760" y="840" as="sourcePoint" />
          </mxGeometry>
        </mxCell>
        <mxCell id="sS-mawD9lKDqWWEO7rcs-92" value="start" style="edgeStyle=orthogonalEdgeStyle;rounded=0;orthogonalLoop=1;jettySize=auto;html=1;fontSize=16;" edge="1" parent="1" source="sS-mawD9lKDqWWEO7rcs-88">
          <mxGeometry relative="1" as="geometry">
            <mxPoint x="600" y="915" as="targetPoint" />
          </mxGeometry>
        </mxCell>
        <mxCell id="sS-mawD9lKDqWWEO7rcs-88" value="" style="rounded=0;whiteSpace=wrap;html=1;fontSize=16;" vertex="1" parent="1">
          <mxGeometry x="470" y="880" width="30" height="70" as="geometry" />
        </mxCell>
        <mxCell id="sS-mawD9lKDqWWEO7rcs-89" value="start" style="endArrow=classic;html=1;fontSize=16;entryX=1.076;entryY=0.192;entryDx=0;entryDy=0;entryPerimeter=0;" edge="1" parent="1">
          <mxGeometry width="50" height="50" relative="1" as="geometry">
            <mxPoint x="502.72" y="829.9999999999998" as="sourcePoint" />
            <mxPoint x="500.0000000000002" y="871.04" as="targetPoint" />
            <Array as="points">
              <mxPoint x="532.72" y="830" />
              <mxPoint x="532.72" y="870" />
            </Array>
          </mxGeometry>
        </mxCell>
        <mxCell id="sS-mawD9lKDqWWEO7rcs-94" value="start" style="edgeStyle=orthogonalEdgeStyle;rounded=0;orthogonalLoop=1;jettySize=auto;html=1;fontSize=16;" edge="1" parent="1" source="sS-mawD9lKDqWWEO7rcs-90">
          <mxGeometry relative="1" as="geometry">
            <mxPoint x="760" y="935" as="targetPoint" />
          </mxGeometry>
        </mxCell>
        <mxCell id="sS-mawD9lKDqWWEO7rcs-90" value="" style="rounded=0;whiteSpace=wrap;html=1;fontSize=16;" vertex="1" parent="1">
          <mxGeometry x="605" y="900" width="30" height="70" as="geometry" />
        </mxCell>
        <mxCell id="sS-mawD9lKDqWWEO7rcs-91" value="" style="endArrow=none;dashed=1;html=1;fontSize=16;entryX=0.5;entryY=1;entryDx=0;entryDy=0;" edge="1" parent="1" target="sS-mawD9lKDqWWEO7rcs-90">
          <mxGeometry width="50" height="50" relative="1" as="geometry">
            <mxPoint x="620" y="1200" as="sourcePoint" />
            <mxPoint x="620" y="740" as="targetPoint" />
          </mxGeometry>
        </mxCell>
        <mxCell id="sS-mawD9lKDqWWEO7rcs-93" value="" style="rounded=0;whiteSpace=wrap;html=1;fontSize=16;" vertex="1" parent="1">
          <mxGeometry x="765" y="930" width="25" height="50" as="geometry" />
        </mxCell>
        <mxCell id="sS-mawD9lKDqWWEO7rcs-96" value="" style="rounded=0;whiteSpace=wrap;html=1;fontSize=16;" vertex="1" parent="1">
          <mxGeometry x="925" y="920" width="25" height="90" as="geometry" />
        </mxCell>
        <mxCell id="sS-mawD9lKDqWWEO7rcs-97" value="" style="rounded=0;whiteSpace=wrap;html=1;fontSize=16;" vertex="1" parent="1">
          <mxGeometry x="1088.75" y="950" width="22.5" height="40" as="geometry" />
        </mxCell>
        <mxCell id="sS-mawD9lKDqWWEO7rcs-98" value="" style="rounded=0;whiteSpace=wrap;html=1;fontSize=16;" vertex="1" parent="1">
          <mxGeometry x="1248.75" y="920" width="22.5" height="40" as="geometry" />
        </mxCell>
        <mxCell id="sS-mawD9lKDqWWEO7rcs-99" value="start" style="edgeStyle=orthogonalEdgeStyle;rounded=0;orthogonalLoop=1;jettySize=auto;html=1;fontSize=16;" edge="1" parent="1">
          <mxGeometry relative="1" as="geometry">
            <mxPoint x="1087.5" y="979.4099999999999" as="targetPoint" />
            <mxPoint x="967.5" y="979.4099999999999" as="sourcePoint" />
          </mxGeometry>
        </mxCell>
        <mxCell id="sS-mawD9lKDqWWEO7rcs-100" style="edgeStyle=orthogonalEdgeStyle;rounded=0;orthogonalLoop=1;jettySize=auto;html=1;fontSize=16;" edge="1" parent="1">
          <mxGeometry relative="1" as="geometry">
            <mxPoint x="1248.75" y="929.9999999999998" as="targetPoint" />
            <mxPoint x="960" y="930" as="sourcePoint" />
          </mxGeometry>
        </mxCell>
        <mxCell id="sS-mawD9lKDqWWEO7rcs-101" value="start" style="edgeLabel;html=1;align=center;verticalAlign=middle;resizable=0;points=[];fontSize=16;" vertex="1" connectable="0" parent="sS-mawD9lKDqWWEO7rcs-100">
          <mxGeometry x="-0.3269" y="-1" relative="1" as="geometry">
            <mxPoint as="offset" />
          </mxGeometry>
        </mxCell>
        <mxCell id="sS-mawD9lKDqWWEO7rcs-102" value="" style="rounded=0;whiteSpace=wrap;html=1;fontSize=16;" vertex="1" parent="1">
          <mxGeometry x="1408.75" y="930" width="22.5" height="40" as="geometry" />
        </mxCell>
        <mxCell id="sS-mawD9lKDqWWEO7rcs-103" value="" style="rounded=0;whiteSpace=wrap;html=1;fontSize=16;" vertex="1" parent="1">
          <mxGeometry x="1568.75" y="945" width="22.5" height="40" as="geometry" />
        </mxCell>
        <mxCell id="sS-mawD9lKDqWWEO7rcs-104" value="start" style="edgeStyle=orthogonalEdgeStyle;rounded=0;orthogonalLoop=1;jettySize=auto;html=1;fontSize=16;" edge="1" parent="1">
          <mxGeometry relative="1" as="geometry">
            <mxPoint x="1400" y="939.6599999999999" as="targetPoint" />
            <mxPoint x="1280" y="939.6599999999999" as="sourcePoint" />
          </mxGeometry>
        </mxCell>
        <mxCell id="sS-mawD9lKDqWWEO7rcs-105" value="start" style="edgeStyle=orthogonalEdgeStyle;rounded=0;orthogonalLoop=1;jettySize=auto;html=1;fontSize=16;" edge="1" parent="1">
          <mxGeometry relative="1" as="geometry">
            <mxPoint x="1560" y="960" as="targetPoint" />
            <mxPoint x="1440" y="960" as="sourcePoint" />
          </mxGeometry>
        </mxCell>
        <mxCell id="sS-mawD9lKDqWWEO7rcs-106" value="" style="rounded=0;whiteSpace=wrap;html=1;fontSize=16;" vertex="1" parent="1">
          <mxGeometry x="1728.75" y="980" width="22.5" height="40" as="geometry" />
        </mxCell>
        <mxCell id="sS-mawD9lKDqWWEO7rcs-107" value="start" style="endArrow=classic;html=1;fontSize=16;" edge="1" parent="1">
          <mxGeometry width="50" height="50" relative="1" as="geometry">
            <mxPoint x="960" y="1000" as="sourcePoint" />
            <mxPoint x="1720" y="1000" as="targetPoint" />
          </mxGeometry>
        </mxCell>
        <mxCell id="sS-mawD9lKDqWWEO7rcs-108" value="" style="rounded=0;whiteSpace=wrap;html=1;fontSize=16;" vertex="1" parent="1">
          <mxGeometry x="1888.75" y="990" width="22.5" height="40" as="geometry" />
        </mxCell>
        <mxCell id="sS-mawD9lKDqWWEO7rcs-109" value="start" style="edgeStyle=orthogonalEdgeStyle;rounded=0;orthogonalLoop=1;jettySize=auto;html=1;fontSize=16;" edge="1" parent="1">
          <mxGeometry relative="1" as="geometry">
            <mxPoint x="1880" y="1010" as="targetPoint" />
            <mxPoint x="1760" y="1010" as="sourcePoint" />
          </mxGeometry>
        </mxCell>
        <mxCell id="sS-mawD9lKDqWWEO7rcs-110" value="应用服务器启动" style="text;html=1;strokeColor=none;fillColor=none;align=center;verticalAlign=middle;whiteSpace=wrap;rounded=0;fontSize=16;" vertex="1" parent="1">
          <mxGeometry x="1088.75" y="1210" width="229" height="40" as="geometry" />
        </mxCell>
      </root>
    </mxGraphModel>
  </diagram>
</mxfile>
